# xmcd
#
# Track frame offsets: 
#        150
#        15636
#        39741
#        49528
#        71615
#        79083
#        92735
#        102587
#        107799
#        125721
#        140754
#        156960
#        176254
#        186934
#        198471
#        215855
#        229859
#        236339
#
# Disc length: 3331 seconds
#
# Revision: 0
# Processed by: cddbd v1.5.2PL0 Copyright (c) Steve Scherf et al.
# Submitted via: ExactAudioCopy v1.0b3
#
DISCID=050d0112
DTITLE=MaaSae Girls Lutheran Secondary School - Come And Praise God (2
DTITLE=000)
DYEAR=2000
DGENRE=World: Africa
TTITLE0=Ee Mungu Kwa Jina Lako
TTITLE1=Ootu Loreren Pookin
TTITLE2=Moyo Yafurahie
TTITLE3=Yesu Alipokuwa
TTITLE4=Soon And Very Soon
TTITLE5=Ni Wako Wewe
TTITLE6=Freedom Is Coming
TTITLE7=Nipe Moya Wenye Sifa
TTITLE8=Seek Ye First The Kingdom
TTITLE9=Mungu Wetu Ni Wa Upendo
TTITLE10=Hakuna Cha Kumpa
TTITLE11=Aningito Oltoilo
TTITLE12=Aningito Elakwa
TTITLE13=Bwana Ni Ngome Yangu
TTITLE14=Goliat
TTITLE15=Eng'asya Sapuk
TTITLE16=Listen, God Is Calling
TTITLE17=Mwimbieni Bwana Wimbo Mpya
EXTD=
EXTT0=
EXTT1=
EXTT2=
EXTT3=
EXTT4=
EXTT5=
EXTT6=
EXTT7=
EXTT8=
EXTT9=
EXTT10=
EXTT11=
EXTT12=
EXTT13=
EXTT14=
EXTT15=
EXTT16=
EXTT17=
PLAYORDER=
